
<svg
   width="16"
   height="16"
   viewBox="0 0 16 16"
   version="1.1"
   id="svg5"
   xml:space="preserve"
   xmlns="http://www.w3.org/2000/svg"
   xmlns:svg="http://www.w3.org/2000/svg"><defs
     id="defs2" /><g
     id="layer1"><g
       id="g155"
       transform="matrix(0.01362719,0,0,0.01362719,4.7104731,5.8858868)"><g
         transform="matrix(3.5219979,0,0,3.5219979,248.67086,251.32914)"
         id="_NRu8qWPFoPidrxZvkurm">

</g><g
         transform="matrix(2.9205881,0,0,2.9205881,248.67086,251.32914)"
         id="DTq9huJQvCpEhAhf2lHbN">

</g><g
         transform="matrix(8.5074828,0,0,8.5074828,246.2825,153.26802)"
         id="r48lW8d0q9thT-Z7lTdql">
<path
   style="opacity:1;fill:#4bac4c;fill-rule:nonzero;stroke:#000000;stroke-width:0;stroke-linecap:butt;stroke-linejoin:miter;stroke-miterlimit:4;stroke-dasharray:none;stroke-dashoffset:0"
   vector-effect="non-scaling-stroke"
   d="m 3.86865,-61.21712 c -2.05342,0 -4.09261,0.34076 -6.03446,1.0084 l -2.98369,1.02584 v 0 c -3.57894,1.2305 -6.81538,3.2915 -9.44412,6.01412 l -0.14723,0.15249 v 0 c -2.07713,2.15132 -3.58932,4.78344 -4.40159,7.66143 l -1.1125,3.94175 -0.54035,3.90254 v 0 c -0.50666,3.65922 -0.40923,7.3768 0.2884,11.00446 l 0.25194,1.31011 2.34987,7.8329 2.76578,6.26632 0.81429,2.08877 v 0 c 0.25274,0.6483 0.16908,1.37957 -0.22355,1.95404 -0.39262,0.57447 -1.04357,0.91803 -1.73939,0.91803 h -3.96701 c 0,0 -2.74151,0.32637 -3.65535,1.82768 -0.91384,1.50131 0.6377,4.17755 0.6377,4.17755 l 0.22057,0.20182 v 0 c 0.95947,0.87789 2.21284,1.36476 3.51333,1.36476 h 1.63361 4.69974 1.1254 v 0 c 0.91935,0 1.76895,0.49019 2.22909,1.28611 l 0.2246,0.38851 v 0 C -8.907,4.35468 -9.31808,5.94576 -10.55,6.68581 l -0.43809,0.26317 -3.78384,0.49213 c 0,0 -3.13316,-0.2611 -4.17755,0 -0.10827,0.02707 -0.17593,0.05508 -0.26525,0.05396 v 0 c -1.46918,-0.01852 -2.84426,0.72113 -3.6386,1.95719 l -0.026,0.04044 v 0 c -0.57738,0.89814 -0.34839,2.09133 0.52045,2.71193 l 0.3182,0.22729 v 0 c 1.16138,0.82956 2.55295,1.27551 3.98018,1.27551 h 1.46089 6.00522 3.80536 v 0 c 0.69387,0 1.3138,0.4336 1.5518,1.08538 l 2.26587,6.20533 2.26415,9.881 1.47434,6.26632 v 0 0 c 0.85061,3.31197 0.92953,6.77501 0.23067,10.12229 v 0 0 c -0.15341,0.73479 -0.37876,1.4527 -0.67279,2.14335 l -0.26382,0.61969 v 0 c -0.93498,2.19617 -2.99689,3.70453 -5.37306,3.9306 L -5.63356,53.992 -7.21382,53.86539 v 0 c -2.15724,-0.17283 -4.14724,-1.22918 -5.49917,-2.91909 l -0.8547,-1.06838 v 0 c -0.79338,-0.99172 -1.79252,-1.79945 -2.92846,-2.36742 l -0.1794,-0.0897 v 0 c -0.53198,-0.26599 -1.15877,-0.2631 -1.68827,0.0078 -0.5295,0.27089 -0.89859,0.77749 -0.99416,1.36453 l -0.01527,0.09381 0.2129,0.68266 v 0 c 0.82217,2.63626 2.32757,5.00789 4.36321,6.8739 l 0.02521,0.02311 4.17755,2.61097 2.00802,1.05685 v 0 c 1.91024,1.00539 4.10813,1.32329 6.22496,0.90036 l 1.6542,-0.3305 0.56516,-0.16663 v 0 c 3.18422,-0.9388 5.8981,-3.04235 7.60131,-5.89186 l 0.00962,-0.0161 0.89148,-1.80782 v 0 c 1.44335,-2.92693 2.19405,-6.14665 2.19405,-9.41011 v 0 -0.94097 0 c 0,-3.54157 -0.34983,-7.07448 -1.04439,-10.54728 v 0 L 8.46564,28.26817 3.62065,14.36389 v 0 C 3.5155,14.06213 3.55136,13.7291 3.71834,13.45664 3.88532,13.18418 4.16579,13.00107 4.4824,12.95779 l 4.67627,-0.63916 v 0 c 0.9023,-0.12333 1.73362,-0.55664 2.35147,-1.22568 v 0 0 c 0.85498,-0.92581 1.19385,-2.21605 0.90412,-3.4425 v 0 0 C 12.09612,6.30369 10.89384,5.35234 9.51001,5.35234 v 0 L 2.68898,6.09012 H 0.98889 v 0 c -1.03342,0 -1.97195,-0.6026 -2.40204,-1.54227 L -1.95393,3.36635 -2.04207,2.76704 v 0 c -0.1117,-0.75951 0.08964,-1.53183 0.55793,-2.14013 0.46829,-0.6083 1.16342,-1.00049 1.92624,-1.08677 l 4.36817,-0.49405 1.60747,-0.38721 v 0 c 1.20128,-0.28937 2.04788,-1.3641 2.04788,-2.59975 0,-0.12123 0,-0.29266 0,-0.36738 0,-0.50314 -0.99677,-1.82768 -0.99677,-1.82768 l -0.51456,-0.244 v 0 C 5.05692,-7.27964 2.98328,-7.74637 0.8834,-7.74637 H -0.70725 -5.6336 -5.86143 v 0 c -0.73796,0 -1.37815,-0.50964 -1.54358,-1.22882 l -1.60412,-6.97339 -0.8805,-7.92453 -0.7048,-7.54717 v -1.28614 0 c 0,-2.75175 0.39293,-5.4894 1.1669,-8.13007 l 0.4184,-1.42751 1.13877,-2.5053 v 0 c 0.48644,-1.07016 1.29586,-1.96107 2.3146,-2.54761 v 0 0 c 1.69319,-0.97487 3.61271,-1.48797 5.56649,-1.48797 v 0 0 c 1.36164,0 2.71869,0.15773 4.04403,0.47004 l 0.42522,0.1002 v 0 c 2.54678,0.60013 4.73973,2.21069 6.07443,4.46121 v 0 c 0.37736,1.00629 1.31698,5.0003 1.31698,5.62923 0,0.62893 1.00629,3.90562 1.00629,3.90562 l 1.18106,4.23475 v 0 c 0.37453,1.3424 0.88407,2.6434 1.52082,3.88309 0.28685,0.55847 0.71577,1.40438 0.83735,1.70835 0.25157,0.62893 2.26365,2.03396 2.26365,2.03396 h 2.30423 c 0.0927,-0.01781 1.25316,-0.38393 1.34451,-0.40771 1.61764,-0.42112 1.60089,-1.67391 1.86914,-3.32381 v -2.56914 -5.55949 l -0.36618,-4.79383 -0.16108,-2.31215 v 0 c -0.23168,-3.32554 -1.30554,-6.53747 -3.12054,-9.33366 v 0 l -0.60491,-1.00818 v 0 c -1.34178,-2.2363 -3.15237,-4.15518 -5.30704,-5.62446 v 0 0 0 c -2.71605,-1.52829 -5.57805,-2.78128 -8.54333,-3.74028 v 0 0 c -0.34008,-0.10999 -0.69529,-0.166 -1.05272,-0.166 z"
   stroke-linecap="round"
   id="path142" />
</g></g></g></svg>
